# WaveFront *.obj file (generated by Autodesk ATF)

mtllib 86ec2780-c976-4bd8-a493-e3a6312f40e8.mtl

g Body1

v -46.126854 35.990332 -52.799999
v -46.126854 36.000000 -53.353859
v -46.169711 36.000000 -54.776875
v -46.212972 36.000000 -56.159152
v -46.256625 36.000000 -57.500316
v -46.300659 36.000000 -58.799999
v -46.822034 35.795387 -58.799999
v -47.372349 35.691266 -58.799999
v -47.932424 35.691266 -58.799999
v -48.482740 35.795387 -58.799999
v -49.004114 36.000000 -58.799999
v -49.065864 36.000000 -56.962438
v -49.126854 36.000000 -55.043312
v -49.126854 35.960843 -52.799999
v -48.650745 35.744454 -52.799999
v -48.144298 35.614046 -52.799999
v -47.622903 35.573580 -52.799999
v -47.102404 35.624287 -52.799999
v -46.598618 35.764626 -52.799999
v -50.652387 38.686205 -59.234390
v -50.594743 38.101023 -59.244604
v -50.424025 37.538329 -59.254426
v -50.146796 37.019748 -59.263478
v -49.773707 36.565208 -59.271412
v -49.319097 36.192176 -59.277923
v -48.800437 35.914988 -59.282761
v -48.237658 35.744297 -59.285741
v -47.652387 35.686662 -59.286747
v -47.067116 35.744297 -59.285741
v -46.504336 35.914988 -59.282761
v -45.985676 36.192176 -59.277923
v -45.531066 36.565208 -59.271412
v -45.157978 37.019748 -59.263478
v -44.880748 37.538329 -59.254426
v -44.710031 38.101023 -59.244604
v -44.652387 38.686205 -59.234390
v -44.710031 39.271387 -59.224175
v -44.880748 39.834080 -59.214353
v -45.157978 40.352662 -59.205301
v -45.531066 40.807202 -59.197367
v -45.985676 41.180234 -59.190856
v -46.504336 41.457421 -59.186018
v -47.067116 41.628113 -59.183038
v -47.652387 41.685748 -59.182032
v -48.237658 41.628113 -59.183038
v -48.800437 41.457421 -59.186018
v -49.319097 41.180234 -59.190856
v -49.773707 40.807202 -59.197367
v -50.146796 40.352662 -59.205301
v -50.424025 39.834080 -59.214353
v -50.594743 39.271387 -59.224175
v -50.652387 38.476776 -47.236217
v -50.594743 39.061958 -47.226003
v -50.424025 39.624651 -47.216181
v -50.146796 40.143233 -47.207129
v -49.773707 40.597773 -47.199195
v -49.319097 40.970805 -47.192684
v -48.800437 41.247993 -47.187846
v -48.237658 41.418684 -47.184866
v -47.652387 41.476319 -47.183860
v -47.067116 41.418684 -47.184866
v -46.504336 41.247993 -47.187846
v -45.985676 40.970805 -47.192684
v -45.531066 40.597773 -47.199195
v -45.157978 40.143233 -47.207129
v -44.880748 39.624651 -47.216181
v -44.710031 39.061958 -47.226003
v -44.652387 38.476776 -47.236217
v -44.710031 37.891594 -47.246432
v -44.880748 37.328901 -47.256254
v -45.157978 36.810319 -47.265305
v -45.531066 36.355779 -47.273239
v -45.985676 35.982747 -47.279751
v -46.504336 35.705560 -47.284589
v -47.067116 35.534868 -47.287568
v -47.652387 35.477233 -47.288574
v -48.237658 35.534868 -47.287568
v -48.800437 35.705560 -47.284589
v -49.319097 35.982747 -47.279751
v -49.773707 36.355779 -47.273239
v -50.146796 36.810319 -47.265305
v -50.424025 37.328901 -47.256254
v -50.594743 37.891594 -47.246432
vt -0.607348 0.311202 0.000000
vt 0.000000 0.294524 0.000000
vt -0.551954 0.311202 0.000000
vt 0.000000 0.353429 0.000000
vt -0.551560 0.363565 0.000000
vt 0.000000 0.412334 0.000000
vt -0.551315 0.415928 0.000000
vt 0.000000 0.471239 0.000000
vt -0.551227 0.468290 0.000000
vt -0.551297 0.520653 0.000000
vt 0.000000 0.530144 0.000000
vt -0.551525 0.573016 0.000000
vt 0.000000 0.589049 0.000000
vt -0.551902 0.625378 0.000000
vt 0.000000 0.647953 0.000000
vt -1.200000 0.647953 0.000000
vt -1.200000 0.706858 0.000000
vt 0.000000 0.706858 0.000000
vt -1.200000 0.765763 0.000000
vt 0.000000 0.765763 0.000000
vt -1.200000 0.824668 0.000000
vt 0.000000 0.824668 0.000000
vt -1.200000 0.883573 0.000000
vt 0.000000 0.883573 0.000000
vt -1.200000 0.942478 0.000000
vt 0.000000 0.942478 0.000000
vt -1.200000 -0.942478 0.000000
vt 0.000000 -0.942478 0.000000
vt -1.200000 -0.883573 0.000000
vt -0.000000 -0.883573 0.000000
vt -1.200000 -0.824668 0.000000
vt -0.000000 -0.824668 0.000000
vt -1.200000 -0.765763 0.000000
vt -0.000000 -0.765763 0.000000
vt -1.200000 -0.706858 0.000000
vt -0.000000 -0.706858 0.000000
vt -1.200000 -0.647953 0.000000
vt -0.000000 -0.647953 0.000000
vt -1.200000 -0.589049 0.000000
vt -0.000000 -0.589049 0.000000
vt -1.200000 -0.530144 0.000000
vt -0.000000 -0.530144 0.000000
vt -1.200000 -0.471239 0.000000
vt -0.000000 -0.471239 0.000000
vt -1.200000 -0.412334 0.000000
vt -0.000000 -0.412334 0.000000
vt -1.200000 -0.353429 0.000000
vt -0.000000 -0.353429 0.000000
vt -1.200000 -0.294524 0.000000
vt -0.000000 -0.294524 0.000000
vt -1.200000 -0.235619 0.000000
vt -0.000000 -0.235619 0.000000
vt -1.200000 -0.176715 0.000000
vt -0.000000 -0.176715 0.000000
vt -1.200000 -0.117810 0.000000
vt -0.000000 -0.117810 0.000000
vt -1.200000 -0.058905 0.000000
vt -0.000000 -0.058905 0.000000
vt -1.200000 -0.000000 0.000000
vt -0.000000 -0.000000 0.000000
vt -1.200000 0.058905 0.000000
vt 0.000000 0.058905 0.000000
vt -1.200000 0.117810 0.000000
vt 0.000000 0.117810 0.000000
vt -1.200000 0.176715 0.000000
vt 0.000000 0.176715 0.000000
vt -1.200000 0.235619 0.000000
vt 0.000000 0.235619 0.000000
vt -1.200000 0.294524 0.000000
vt -0.749628 0.316156 0.000000
vt -0.887835 0.321109 0.000000
vt -1.021931 0.326063 0.000000
vt -1.151879 0.331016 0.000000
vt -1.200000 0.353429 0.000000
vt -1.151522 0.387105 0.000000
vt -1.200000 0.412334 0.000000
vt -1.151341 0.443194 0.000000
vt -1.200000 0.471239 0.000000
vt -1.151341 0.499284 0.000000
vt -1.200000 0.530144 0.000000
vt -1.151522 0.555373 0.000000
vt -1.200000 0.589049 0.000000
vt -1.151879 0.611462 0.000000
vt -0.968151 0.618420 0.000000
vt -0.776268 0.625378 0.000000
vn 0.050851 -0.086092 -0.001503
vn 0.055557 -0.083134 -0.001451
vn 0.050851 -0.086092 -0.001503
vn 0.038268 -0.092374 -0.001612
vn 0.035126 -0.093614 -0.001634
vn 0.019509 -0.098064 -0.001712
vn 0.018333 -0.098290 -0.001716
vn 0.000000 -0.099985 -0.001745
vn 0.000983 -0.099980 -0.001745
vn -0.016397 -0.098632 -0.001722
vn -0.019509 -0.098064 -0.001712
vn -0.033279 -0.094286 -0.001646
vn -0.038268 -0.092374 -0.001612
vn -0.049149 -0.087075 -0.001520
vn -0.055557 -0.083134 -0.001451
vn -0.055557 -0.083134 -0.001451
vn -0.070711 -0.070700 -0.001234
vn -0.070711 -0.070700 -0.001234
vn -0.083147 -0.055549 -0.000970
vn -0.083147 -0.055549 -0.000970
vn -0.092388 -0.038263 -0.000668
vn -0.092388 -0.038263 -0.000668
vn -0.098079 -0.019506 -0.000340
vn -0.098079 -0.019506 -0.000340
vn -0.100000 -0.000000 -0.000000
vn -0.100000 -0.000000 -0.000000
vn -0.098079 0.019506 0.000340
vn -0.098079 0.019506 0.000340
vn -0.092388 0.038263 0.000668
vn -0.092388 0.038263 0.000668
vn -0.083147 0.055549 0.000970
vn -0.083147 0.055549 0.000970
vn -0.070711 0.070700 0.001234
vn -0.070711 0.070700 0.001234
vn -0.055557 0.083134 0.001451
vn -0.055557 0.083134 0.001451
vn -0.038268 0.092374 0.001612
vn -0.038268 0.092374 0.001612
vn -0.019509 0.098064 0.001712
vn -0.019509 0.098064 0.001712
vn -0.000000 0.099985 0.001745
vn -0.000000 0.099985 0.001745
vn 0.019509 0.098064 0.001712
vn 0.019509 0.098064 0.001712
vn 0.038268 0.092374 0.001612
vn 0.038268 0.092374 0.001612
vn 0.055557 0.083134 0.001451
vn 0.055557 0.083134 0.001451
vn 0.070711 0.070700 0.001234
vn 0.070711 0.070700 0.001234
vn 0.083147 0.055549 0.000970
vn 0.083147 0.055549 0.000970
vn 0.092388 0.038263 0.000668
vn 0.092388 0.038263 0.000668
vn 0.098079 0.019506 0.000340
vn 0.098079 0.019506 0.000340
vn 0.100000 0.000000 0.000000
vn 0.100000 0.000000 0.000000
vn 0.098079 -0.019506 -0.000340
vn 0.098079 -0.019506 -0.000340
vn 0.092388 -0.038263 -0.000668
vn 0.092388 -0.038263 -0.000668
vn 0.083147 -0.055549 -0.000970
vn 0.083147 -0.055549 -0.000970
vn 0.070711 -0.070700 -0.001234
vn 0.070711 -0.070700 -0.001234
vn 0.055557 -0.083134 -0.001451
vn 0.049423 -0.086920 -0.001517
vn 0.047980 -0.087724 -0.001531
vn 0.046525 -0.088504 -0.001545
vn 0.045058 -0.089260 -0.001558
vn 0.038268 -0.092374 -0.001612
vn 0.027678 -0.096079 -0.001677
vn 0.019509 -0.098064 -0.001712
vn 0.009335 -0.099548 -0.001738
vn 0.000000 -0.099985 -0.001745
vn -0.009335 -0.099548 -0.001738
vn -0.019509 -0.098064 -0.001712
vn -0.027678 -0.096079 -0.001677
vn -0.038268 -0.092374 -0.001612
vn -0.045058 -0.089260 -0.001558
vn -0.047116 -0.088191 -0.001539
vn -0.049149 -0.087075 -0.001520
usemtl Steel_-_Satin
f 2/1/1 73/2/2 1/3/3
f 1/3/3 73/2/2 74/4/4
f 1/3/3 74/4/4 19/5/5
f 19/5/5 74/4/4 75/6/6
f 19/5/5 75/6/6 18/7/7
f 18/7/7 75/6/6 76/8/8
f 18/7/7 76/8/8 17/9/9
f 17/9/9 76/8/8 16/10/10
f 16/10/10 76/8/8 77/11/11
f 16/10/10 77/11/11 15/12/12
f 15/12/12 77/11/11 78/13/13
f 15/12/12 78/13/13 14/14/14
f 14/14/14 78/13/13 79/15/15
f 14/14/14 79/15/15 25/16/16
f 25/16/16 79/15/15 24/17/17
f 24/17/17 79/15/15 80/18/18
f 24/17/17 80/18/18 23/19/19
f 23/19/19 80/18/18 81/20/20
f 23/19/19 81/20/20 22/21/21
f 22/21/21 81/20/20 82/22/22
f 22/21/21 82/22/22 21/23/23
f 21/23/23 82/22/22 83/24/24
f 21/23/23 83/24/24 20/25/25
f 20/25/25 83/24/24 52/26/26
f 20/27/25 52/28/26 51/29/27
f 51/29/27 52/28/26 53/30/28
f 51/29/27 53/30/28 50/31/29
f 50/31/29 53/30/28 54/32/30
f 50/31/29 54/32/30 49/33/31
f 49/33/31 54/32/30 55/34/32
f 49/33/31 55/34/32 48/35/33
f 48/35/33 55/34/32 56/36/34
f 48/35/33 56/36/34 47/37/35
f 47/37/35 56/36/34 57/38/36
f 47/37/35 57/38/36 46/39/37
f 46/39/37 57/38/36 58/40/38
f 46/39/37 58/40/38 45/41/39
f 45/41/39 58/40/38 59/42/40
f 45/41/39 59/42/40 44/43/41
f 44/43/41 59/42/40 60/44/42
f 44/43/41 60/44/42 43/45/43
f 43/45/43 60/44/42 61/46/44
f 43/45/43 61/46/44 42/47/45
f 42/47/45 61/46/44 62/48/46
f 42/47/45 62/48/46 41/49/47
f 41/49/47 62/48/46 63/50/48
f 41/49/47 63/50/48 40/51/49
f 40/51/49 63/50/48 64/52/50
f 40/51/49 64/52/50 39/53/51
f 39/53/51 64/52/50 65/54/52
f 39/53/51 65/54/52 38/55/53
f 38/55/53 65/54/52 66/56/54
f 38/55/53 66/56/54 37/57/55
f 37/57/55 66/56/54 67/58/56
f 37/57/55 67/58/56 36/59/57
f 36/59/57 67/58/56 68/60/58
f 36/59/57 68/60/58 35/61/59
f 35/61/59 68/60/58 69/62/60
f 35/61/59 69/62/60 34/63/61
f 34/63/61 69/62/60 70/64/62
f 34/63/61 70/64/62 33/65/63
f 33/65/63 70/64/62 71/66/64
f 33/65/63 71/66/64 32/67/65
f 32/67/65 71/66/64 72/68/66
f 32/67/65 72/68/66 31/69/67
f 31/69/67 72/68/66 73/2/2
f 31/69/67 73/2/2 2/1/1
f 2/1/1 3/70/68 31/69/67
f 31/69/67 3/70/68 4/71/69
f 31/69/67 4/71/69 5/72/70
f 5/72/70 6/73/71 31/69/67
f 31/69/67 6/73/71 30/74/72
f 30/74/72 6/73/71 7/75/73
f 30/74/72 7/75/73 29/76/74
f 29/76/74 7/75/73 8/77/75
f 29/76/74 8/77/75 28/78/76
f 28/78/76 8/77/75 9/79/77
f 28/78/76 9/79/77 27/80/78
f 27/80/78 9/79/77 10/81/79
f 27/80/78 10/81/79 26/82/80
f 26/82/80 10/81/79 11/83/81
f 26/82/80 11/83/81 25/16/16
f 25/16/16 11/83/81 12/84/82
f 25/16/16 12/84/82 13/85/83
f 13/85/83 14/14/14 25/16/16
# 83 vertices
# 85 texture params
# 83 normals
# 85 facets

# 1 groups
